<svg id="Capa_1" enable-background="new 0 0 512 512" height="512" viewBox="0 0 512 512" width="512" xmlns="http://www.w3.org/2000/svg"><g><path d="m90.841 27.557v179.747l168.071 304.696h40.377l26.669-230.73-26.669-253.713z" fill="#0a617d"/><g><g><g><path d="m299.289 27.557h208.448v484.443h-208.448z" fill="#07485e"/></g><g><path d="m140.633 76.292v386.974h158.656l26.534-181.996-26.534-204.978z" fill="#fff5f5"/><path d="m299.289 76.292h158.656v386.974h-158.656z" fill="#e1ebf0"/></g><g><path d="m210.317 0v76.292h88.972l30.614-38.146-30.614-38.146z" fill="#2fc0f0"/></g></g><g><path d="m299.289 391.768h-70.222v-30h70.222l10.561 15z" fill="#07485e"/></g><g><path d="m299.289 331.534h-70.535v-30h70.535l10.561 15z" fill="#07485e"/></g><g><path d="m299.289 271.301h-70.535v-30h70.535l10.561 15z" fill="#07485e"/></g><g><path d="m299.602 361.768h70.223v30h-70.223z" fill="#04303e"/></g><g><path d="m299.289 301.534h70.535v30h-70.535z" fill="#04303e"/></g><g><path d="m299.289 241.301h70.535v30h-70.535z" fill="#04303e"/></g></g><path d="m299.289 0h88.973v76.292h-88.973z" fill="#5393fc"/><g><path d="m281.882 175.804-14.421-17.987h-38.707v30h24.309l18.642 23.251h23.982l3.602-5.993 4.509-29.259-4.509-28.97z" fill="#7cdb80"/><path d="m346.634 169.08-17.782-22.524h-29.388l-.175.29v58.229l16.228-26.995 16.578 21h37.73v-30z" fill="#5fa88e"/></g><g><g><path d="m131.587 207.304h-40.746v133.17l-51.622 33.878c-13.898 9.121-24.267 22.312-29.969 37.431l138.862 16.525z" fill="#e1ebf0"/><path d="m253.924 411.783c-5.702-15.118-16.071-28.31-29.969-37.431l-51.622-33.878v-133.17h-40.746v204.479z" fill="#b4d2d7"/><path d="m9.25 411.783c-3.249 8.614-4.988 17.851-4.988 27.323v72.894h127.325l23.216-50.108-23.216-50.108h-122.337z" fill="#f2cf7f"/></g><path d="m258.912 439.106c0-9.472-1.739-18.709-4.988-27.323h-122.337v100.217h127.325z" fill="#e6926a"/></g></g></svg>