<svg height="512" viewBox="0 0 128 128" width="512" xmlns="http://www.w3.org/2000/svg"><g><path d="m76.625 11.619a23.467 23.467 0 0 0 -33.187 0 23.467 23.467 0 0 0 0 33.188l21.375 21.375 33.187-33.187z" fill="#e1ebf0"/><path d="m51.787 21.718a1.751 1.751 0 0 1 -1.237-2.988 13.425 13.425 0 0 1 18.964 0 1.75 1.75 0 1 1 -2.475 2.475 9.923 9.923 0 0 0 -14.015 0 1.741 1.741 0 0 1 -1.237.513z" fill="#b4d2d7"/><path d="m119.377 54.371-21.377-21.376-33.187 33.187 21.376 21.376a23.467 23.467 0 0 0 33.188 0 23.467 23.467 0 0 0 0-33.187z" fill="#52dddc"/><circle cx="29.594" cy="95.411" fill="#b6baf2" r="27.844" transform="matrix(.533 -.846 .846 .533 -66.901 69.571)"/><path d="m17.781 108.973a1.751 1.751 0 0 1 -1.237-2.988l23.625-23.625a1.75 1.75 0 0 1 2.475 2.475l-23.625 23.625a1.745 1.745 0 0 1 -1.238.513z" fill="#7c84e8"/></g></svg>