<svg height="512" viewBox="0 0 512 512" width="512" xmlns="http://www.w3.org/2000/svg"><g id="Flat"><circle cx="424" cy="88" fill="#d5d5d3" r="64"/><path d="m408 88v240a128 128 0 0 1 -128 128v32a160 160 0 0 0 160-160v-240z" fill="#2c86d1"/><circle cx="424" cy="88" fill="#dfdfdd" r="32"/><path d="m280 312a88 88 0 1 0 88 88 88 88 0 0 0 -88-88zm0 144a56 56 0 1 1 56-56 56 56 0 0 1 -56 56z" fill="#348ed8"/><path d="m230.126 425.458c-16.919-8.493-31.043-21.7-38.052-28.926-.044 1.151-.074 2.306-.074 3.468a88.011 88.011 0 0 0 77.534 87.378c.3-10.305.579-22.193.615-32.259a56.051 56.051 0 0 1 -40.023-29.661z" fill="#2c86d1"/><path d="m88 24h16a16 16 0 0 1 16 16 16 16 0 0 1 -16 16h-16a0 0 0 0 1 0 0v-32a0 0 0 0 1 0 0z" fill="#eaeae8"/><path d="m168 24h16a0 0 0 0 1 0 0v32a0 0 0 0 1 0 0h-16a16 16 0 0 1 -16-16 16 16 0 0 1 16-16z" fill="#eaeae8"/><path d="m64 24a40 40 0 0 0 -40 40v88h32v-88a8 8 0 0 1 8-8h24v-32z" fill="#dfdfdd"/><path d="m208 24h-24v32h24a8 8 0 0 1 8 8v88h32v-88a40 40 0 0 0 -40-40z" fill="#dfdfdd"/><path d="m280 456a128 128 0 0 1 -128-128v-49.143a112.018 112.018 0 0 0 96-110.857v-16h-32v16a80 80 0 0 1 -80 80 80 80 0 0 1 -80-80v-16h-32v16a112.018 112.018 0 0 0 96 110.857v49.143a160 160 0 0 0 160 160" fill="#348ed8"/></g></svg>