<?xml version="1.0" encoding="iso-8859-1"?>
<!-- Generator: Adobe Illustrator 19.0.0, SVG Export Plug-In . SVG Version: 6.00 Build 0)  -->
<svg version="1.1" id="Capa_1" xmlns="http://www.w3.org/2000/svg" xmlns:xlink="http://www.w3.org/1999/xlink" x="0px" y="0px"
	 viewBox="0 0 512.008 512.008" style="enable-background:new 0 0 512.008 512.008;" xml:space="preserve">
<path style="fill:#2196F3;" d="M501.342,0.004h-192c-2.831-0.005-5.548,1.115-7.552,3.115L3.123,301.786
	c-4.164,4.165-4.164,10.917,0,15.083l192,192c4.165,4.164,10.917,4.164,15.083,0l298.667-298.667
	c2.002-1.996,3.13-4.704,3.136-7.531v-192C512.008,4.78,507.233,0.004,501.342,0.004z"/>
<circle style="fill:#FAFAFA;" cx="394.675" cy="117.338" r="53.333"/>
<g>
	<path style="fill:#455A64;" d="M224.008,384.004c-5.891,0-10.667-4.776-10.667-10.667V202.671c0-5.891,4.776-10.667,10.667-10.667
		c5.891,0,10.667,4.776,10.667,10.667v170.667C234.675,379.229,229.899,384.004,224.008,384.004z"/>
	<path style="fill:#455A64;" d="M160.008,298.671c-17.673,0-32-14.327-32-32s14.327-32,32-32s32,14.327,32,32
		S177.682,298.671,160.008,298.671z M160.008,256.004c-5.891,0-10.667,4.776-10.667,10.667c0,5.891,4.776,10.667,10.667,10.667
		s10.667-4.776,10.667-10.667C170.675,260.78,165.899,256.004,160.008,256.004z"/>
	<path style="fill:#455A64;" d="M288.008,341.338c-17.673,0-32-14.327-32-32c0-17.673,14.327-32,32-32s32,14.327,32,32
		C320.008,327.011,305.682,341.338,288.008,341.338L288.008,341.338z M288.008,298.671c-5.891,0-10.667,4.776-10.667,10.667
		c0,5.891,4.776,10.667,10.667,10.667s10.667-4.776,10.667-10.667C298.675,303.447,293.899,298.671,288.008,298.671z"/>
</g>
<path d="M202.675,512.004c-2.831,0.005-5.548-1.115-7.552-3.115l-192-192c-4.164-4.165-4.164-10.917,0-15.083L301.79,3.14
	c2.001-2.007,4.718-3.135,7.552-3.136h192c5.891,0,10.667,4.776,10.667,10.667v192c0.005,2.831-1.115,5.548-3.115,7.552
	L210.227,508.89C208.223,510.889,205.506,512.009,202.675,512.004z M25.758,309.338l176.917,176.917l288-288V21.338H313.758
	L25.758,309.338z"/>
<path d="M394.675,170.671c-29.455,0-53.333-23.878-53.333-53.333s23.878-53.333,53.333-53.333s53.333,23.878,53.333,53.333
	S424.13,170.671,394.675,170.671z M394.675,85.338c-17.673,0-32,14.327-32,32s14.327,32,32,32s32-14.327,32-32
	S412.348,85.338,394.675,85.338z"/>
<path d="M224.008,384.004c-5.891,0-10.667-4.776-10.667-10.667V202.671c0-5.891,4.776-10.667,10.667-10.667
	c5.891,0,10.667,4.776,10.667,10.667v170.667C234.675,379.229,229.899,384.004,224.008,384.004z"/>
<path d="M160.008,298.671c-17.673,0-32-14.327-32-32s14.327-32,32-32s32,14.327,32,32S177.682,298.671,160.008,298.671z
	 M160.008,256.004c-5.891,0-10.667,4.776-10.667,10.667c0,5.891,4.776,10.667,10.667,10.667s10.667-4.776,10.667-10.667
	C170.675,260.78,165.899,256.004,160.008,256.004z"/>
<path d="M288.008,341.338c-17.673,0-32-14.327-32-32c0-17.673,14.327-32,32-32s32,14.327,32,32
	C320.008,327.011,305.682,341.338,288.008,341.338L288.008,341.338z M288.008,298.671c-5.891,0-10.667,4.776-10.667,10.667
	c0,5.891,4.776,10.667,10.667,10.667s10.667-4.776,10.667-10.667C298.675,303.447,293.899,298.671,288.008,298.671z"/>
<g>
</g>
<g>
</g>
<g>
</g>
<g>
</g>
<g>
</g>
<g>
</g>
<g>
</g>
<g>
</g>
<g>
</g>
<g>
</g>
<g>
</g>
<g>
</g>
<g>
</g>
<g>
</g>
<g>
</g>
</svg>
